# xmcd
#
# Track frame offsets:
#	150
#	21652
#	40434
#	73851
#	94413
#	111298
#	135770
#	155145
#	193415
#
# Disc length: 3356 seconds
#
# Revision: 1
# Processed by: cddbd v1.5.2PL0 Copyright (c) Steve Scherf et al.
# Submitted via: audiograbber 1.83.01
#
DISCID=8a0d1a09
DTITLE=The Bluesbones - Live @ De Bosuil 2013
DYEAR=2013
DGENRE=Blues
TTITLE0=The Witchdoctor
TTITLE1=Depression
TTITLE2=Voodoo Guitar
TTITLE3=Broken Down Car
TTITLE4=Riding Out
TTITLE5=Broken Tears
TTITLE6=Cruisin'
TTITLE7=Believe Me
TTITLE8=Whiskey Drinking Woman
EXTD=
EXTT0=
EXTT1=
EXTT2=
EXTT3=
EXTT4=
EXTT5=
EXTT6=
EXTT7=
EXTT8=
PLAYORDER=
